<mxfile host="app.diagrams.net" modified="2023-01-13T07:50:55.073Z" agent="5.0 (Windows NT 10.0; Win64; x64) AppleWebKit/537.36 (KHTML, like Gecko) Chrome/108.0.0.0 Safari/537.36" version="20.8.4" etag="qIU-jDS00ZPIT2O_LYB2" type="github">
  <diagram id="5y1TQZZEC-LF-W-eCJ5e" name="페이지-1">
    <mxGraphModel dx="1434" dy="764" grid="1" gridSize="10" guides="1" tooltips="1" connect="1" arrows="1" fold="1" page="1" pageScale="1" pageWidth="827" pageHeight="1169" math="0" shadow="0">
      <root>
        <mxCell id="0" />
        <mxCell id="1" parent="0" />
        <mxCell id="niKF17zhMhsiTIKh6Zkb-2" value="(1) 메인보드" style="swimlane;whiteSpace=wrap;html=1;" vertex="1" parent="1">
          <mxGeometry x="50" y="50" width="490" height="700" as="geometry" />
        </mxCell>
        <mxCell id="niKF17zhMhsiTIKh6Zkb-5" value="" style="endArrow=classic;startArrow=classic;html=1;rounded=0;" edge="1" parent="niKF17zhMhsiTIKh6Zkb-2">
          <mxGeometry width="50" height="50" relative="1" as="geometry">
            <mxPoint x="250.5" y="630" as="sourcePoint" />
            <mxPoint x="250" y="90" as="targetPoint" />
          </mxGeometry>
        </mxCell>
        <mxCell id="niKF17zhMhsiTIKh6Zkb-6" value="&lt;b&gt;(2) 시스템 버스&lt;/b&gt;" style="text;html=1;align=center;verticalAlign=middle;resizable=0;points=[];autosize=1;strokeColor=none;fillColor=none;" vertex="1" parent="niKF17zhMhsiTIKh6Zkb-2">
          <mxGeometry x="260" y="320" width="100" height="30" as="geometry" />
        </mxCell>
        <mxCell id="niKF17zhMhsiTIKh6Zkb-81" value="(3) CPU" style="swimlane;" vertex="1" parent="niKF17zhMhsiTIKh6Zkb-2">
          <mxGeometry x="20" y="100" width="170" height="170" as="geometry" />
        </mxCell>
        <mxCell id="niKF17zhMhsiTIKh6Zkb-83" value="제어장치" style="rounded=0;whiteSpace=wrap;html=1;" vertex="1" parent="niKF17zhMhsiTIKh6Zkb-81">
          <mxGeometry x="10" y="110" width="70" height="40" as="geometry" />
        </mxCell>
        <mxCell id="niKF17zhMhsiTIKh6Zkb-84" value="레지스터" style="rounded=0;whiteSpace=wrap;html=1;" vertex="1" parent="niKF17zhMhsiTIKh6Zkb-81">
          <mxGeometry x="90" y="40" width="70" height="30" as="geometry" />
        </mxCell>
        <mxCell id="niKF17zhMhsiTIKh6Zkb-85" value="레지스터" style="rounded=0;whiteSpace=wrap;html=1;" vertex="1" parent="niKF17zhMhsiTIKh6Zkb-81">
          <mxGeometry x="90" y="80" width="70" height="30" as="geometry" />
        </mxCell>
        <mxCell id="niKF17zhMhsiTIKh6Zkb-86" value="레지스터" style="rounded=0;whiteSpace=wrap;html=1;" vertex="1" parent="niKF17zhMhsiTIKh6Zkb-81">
          <mxGeometry x="90" y="120" width="70" height="30" as="geometry" />
        </mxCell>
        <mxCell id="niKF17zhMhsiTIKh6Zkb-88" value="ALU" style="rounded=0;whiteSpace=wrap;html=1;" vertex="1" parent="niKF17zhMhsiTIKh6Zkb-81">
          <mxGeometry x="10" y="40" width="70" height="60" as="geometry" />
        </mxCell>
        <mxCell id="niKF17zhMhsiTIKh6Zkb-110" value="" style="rounded=0;whiteSpace=wrap;html=1;" vertex="1" parent="niKF17zhMhsiTIKh6Zkb-2">
          <mxGeometry x="20" y="390" width="120" height="20" as="geometry" />
        </mxCell>
        <mxCell id="niKF17zhMhsiTIKh6Zkb-114" value="" style="rounded=0;whiteSpace=wrap;html=1;" vertex="1" parent="niKF17zhMhsiTIKh6Zkb-2">
          <mxGeometry x="20" y="410" width="120" height="20" as="geometry" />
        </mxCell>
        <mxCell id="niKF17zhMhsiTIKh6Zkb-115" value="" style="rounded=0;whiteSpace=wrap;html=1;" vertex="1" parent="niKF17zhMhsiTIKh6Zkb-2">
          <mxGeometry x="20" y="430" width="120" height="20" as="geometry" />
        </mxCell>
        <mxCell id="niKF17zhMhsiTIKh6Zkb-116" value="" style="rounded=0;whiteSpace=wrap;html=1;" vertex="1" parent="niKF17zhMhsiTIKh6Zkb-2">
          <mxGeometry x="20" y="450" width="120" height="20" as="geometry" />
        </mxCell>
        <mxCell id="niKF17zhMhsiTIKh6Zkb-117" value="" style="rounded=0;whiteSpace=wrap;html=1;" vertex="1" parent="niKF17zhMhsiTIKh6Zkb-2">
          <mxGeometry x="20" y="470" width="120" height="20" as="geometry" />
        </mxCell>
        <mxCell id="niKF17zhMhsiTIKh6Zkb-118" value="" style="rounded=0;whiteSpace=wrap;html=1;" vertex="1" parent="niKF17zhMhsiTIKh6Zkb-2">
          <mxGeometry x="20" y="490" width="120" height="20" as="geometry" />
        </mxCell>
        <mxCell id="niKF17zhMhsiTIKh6Zkb-123" value="" style="rounded=0;whiteSpace=wrap;html=1;" vertex="1" parent="niKF17zhMhsiTIKh6Zkb-2">
          <mxGeometry x="20" y="510" width="120" height="20" as="geometry" />
        </mxCell>
        <mxCell id="niKF17zhMhsiTIKh6Zkb-124" value="" style="rounded=0;whiteSpace=wrap;html=1;" vertex="1" parent="niKF17zhMhsiTIKh6Zkb-2">
          <mxGeometry x="20" y="530" width="120" height="20" as="geometry" />
        </mxCell>
        <mxCell id="niKF17zhMhsiTIKh6Zkb-125" value="" style="rounded=0;whiteSpace=wrap;html=1;" vertex="1" parent="niKF17zhMhsiTIKh6Zkb-2">
          <mxGeometry x="20" y="550" width="120" height="20" as="geometry" />
        </mxCell>
        <mxCell id="niKF17zhMhsiTIKh6Zkb-126" value="" style="rounded=0;whiteSpace=wrap;html=1;" vertex="1" parent="niKF17zhMhsiTIKh6Zkb-2">
          <mxGeometry x="20" y="570" width="120" height="20" as="geometry" />
        </mxCell>
        <mxCell id="niKF17zhMhsiTIKh6Zkb-127" value="" style="rounded=0;whiteSpace=wrap;html=1;" vertex="1" parent="niKF17zhMhsiTIKh6Zkb-2">
          <mxGeometry x="20" y="590" width="120" height="20" as="geometry" />
        </mxCell>
        <mxCell id="niKF17zhMhsiTIKh6Zkb-128" value="" style="rounded=0;whiteSpace=wrap;html=1;" vertex="1" parent="niKF17zhMhsiTIKh6Zkb-2">
          <mxGeometry x="20" y="610" width="120" height="20" as="geometry" />
        </mxCell>
        <mxCell id="niKF17zhMhsiTIKh6Zkb-129" value="&lt;b&gt;(4) 메모리&lt;/b&gt;" style="text;html=1;strokeColor=none;fillColor=none;align=center;verticalAlign=middle;whiteSpace=wrap;rounded=0;" vertex="1" parent="niKF17zhMhsiTIKh6Zkb-2">
          <mxGeometry x="20" y="350" width="60" height="30" as="geometry" />
        </mxCell>
        <mxCell id="niKF17zhMhsiTIKh6Zkb-130" value="" style="endArrow=classic;startArrow=classic;html=1;rounded=0;" edge="1" parent="niKF17zhMhsiTIKh6Zkb-2">
          <mxGeometry width="50" height="50" relative="1" as="geometry">
            <mxPoint x="260" y="419.5" as="sourcePoint" />
            <mxPoint x="510" y="420" as="targetPoint" />
          </mxGeometry>
        </mxCell>
        <mxCell id="niKF17zhMhsiTIKh6Zkb-131" value="" style="endArrow=classic;startArrow=classic;html=1;rounded=0;" edge="1" parent="niKF17zhMhsiTIKh6Zkb-2">
          <mxGeometry width="50" height="50" relative="1" as="geometry">
            <mxPoint x="260" y="499.5" as="sourcePoint" />
            <mxPoint x="510" y="500" as="targetPoint" />
          </mxGeometry>
        </mxCell>
        <mxCell id="niKF17zhMhsiTIKh6Zkb-132" value="" style="endArrow=classic;startArrow=classic;html=1;rounded=0;" edge="1" parent="niKF17zhMhsiTIKh6Zkb-2">
          <mxGeometry width="50" height="50" relative="1" as="geometry">
            <mxPoint x="260" y="579.5" as="sourcePoint" />
            <mxPoint x="510" y="580" as="targetPoint" />
          </mxGeometry>
        </mxCell>
        <mxCell id="niKF17zhMhsiTIKh6Zkb-133" value="" style="endArrow=classic;startArrow=classic;html=1;rounded=0;" edge="1" parent="niKF17zhMhsiTIKh6Zkb-2">
          <mxGeometry width="50" height="50" relative="1" as="geometry">
            <mxPoint x="150" y="479.5" as="sourcePoint" />
            <mxPoint x="240" y="480" as="targetPoint" />
          </mxGeometry>
        </mxCell>
        <mxCell id="niKF17zhMhsiTIKh6Zkb-134" value="" style="endArrow=classic;startArrow=classic;html=1;rounded=0;" edge="1" parent="niKF17zhMhsiTIKh6Zkb-2">
          <mxGeometry width="50" height="50" relative="1" as="geometry">
            <mxPoint x="200" y="184.5" as="sourcePoint" />
            <mxPoint x="240" y="185" as="targetPoint" />
          </mxGeometry>
        </mxCell>
        <mxCell id="niKF17zhMhsiTIKh6Zkb-135" value="" style="endArrow=classic;startArrow=classic;html=1;rounded=0;" edge="1" parent="niKF17zhMhsiTIKh6Zkb-2">
          <mxGeometry width="50" height="50" relative="1" as="geometry">
            <mxPoint x="260" y="130" as="sourcePoint" />
            <mxPoint x="510" y="130.5" as="targetPoint" />
          </mxGeometry>
        </mxCell>
        <mxCell id="niKF17zhMhsiTIKh6Zkb-3" value="" style="shape=datastore;whiteSpace=wrap;html=1;" vertex="1" parent="1">
          <mxGeometry x="570" y="140" width="170" height="190" as="geometry" />
        </mxCell>
        <mxCell id="niKF17zhMhsiTIKh6Zkb-4" value="(5) 보조기억장치" style="text;html=1;align=center;verticalAlign=middle;resizable=0;points=[];autosize=1;strokeColor=none;fillColor=none;fontStyle=1" vertex="1" parent="1">
          <mxGeometry x="600" y="90" width="110" height="30" as="geometry" />
        </mxCell>
        <UserObject label="대충 모니터" treeRoot="1" id="niKF17zhMhsiTIKh6Zkb-37">
          <mxCell style="whiteSpace=wrap;html=1;align=center;treeFolding=1;treeMoving=1;newEdgeStyle={&quot;edgeStyle&quot;:&quot;elbowEdgeStyle&quot;,&quot;startArrow&quot;:&quot;none&quot;,&quot;endArrow&quot;:&quot;none&quot;};" vertex="1" collapsed="1" parent="1">
            <mxGeometry x="570" y="440" width="120" height="60" as="geometry" />
          </mxCell>
        </UserObject>
        <UserObject label="대충 키보드" treeRoot="1" id="niKF17zhMhsiTIKh6Zkb-38">
          <mxCell style="whiteSpace=wrap;html=1;align=center;treeFolding=1;treeMoving=1;newEdgeStyle={&quot;edgeStyle&quot;:&quot;elbowEdgeStyle&quot;,&quot;startArrow&quot;:&quot;none&quot;,&quot;endArrow&quot;:&quot;none&quot;};" vertex="1" parent="1">
            <mxGeometry x="570" y="520" width="120" height="60" as="geometry" />
          </mxCell>
        </UserObject>
        <UserObject label="대충 마우스" treeRoot="1" id="niKF17zhMhsiTIKh6Zkb-39">
          <mxCell style="whiteSpace=wrap;html=1;align=center;treeFolding=1;treeMoving=1;newEdgeStyle={&quot;edgeStyle&quot;:&quot;elbowEdgeStyle&quot;,&quot;startArrow&quot;:&quot;none&quot;,&quot;endArrow&quot;:&quot;none&quot;};" vertex="1" parent="1">
            <mxGeometry x="570" y="600" width="120" height="60" as="geometry" />
          </mxCell>
        </UserObject>
        <mxCell id="niKF17zhMhsiTIKh6Zkb-40" value="" style="shape=curlyBracket;whiteSpace=wrap;html=1;rounded=1;flipH=1;labelPosition=right;verticalLabelPosition=middle;align=left;verticalAlign=middle;" vertex="1" parent="1">
          <mxGeometry x="705" y="420" width="20" height="260" as="geometry" />
        </mxCell>
        <mxCell id="niKF17zhMhsiTIKh6Zkb-42" value="&lt;b&gt;(6) 입출력장치&lt;/b&gt;" style="text;html=1;strokeColor=none;fillColor=none;align=center;verticalAlign=middle;whiteSpace=wrap;rounded=0;" vertex="1" parent="1">
          <mxGeometry x="730" y="535" width="90" height="30" as="geometry" />
        </mxCell>
      </root>
    </mxGraphModel>
  </diagram>
</mxfile>
